<svg xmlns="http://www.w3.org/2000/svg" viewBox="0 0 32 32">
  <rect width="32" height="32" rx="6" fill="#111111"/>
  <!-- Outer P stroke -->
  <path d="M8 6 L8 26 L11 26 L11 17 L20 17 C24.5 17 28 14 28 11.5 C28 9 24.5 6 20 6 Z M11 9 L20 9 C23 9 25 10 25 11.5 C25 13 23 14 20 14 L11 14 Z" fill="#ffffff"/>
  <!-- Inner P stroke -->
  <path d="M10 8 L10 24 L12.5 24 L12.5 18.5 L19.5 18.5 C23.5 18.5 26.5 16 26.5 13.2 C26.5 10.5 23.5 8 19.5 8 Z M12.5 10.5 L19.5 10.5 C22 10.5 24 11.5 24 13.2 C24 14.8 22 15.8 19.5 15.8 L12.5 15.8 Z" fill="#ffffff" opacity="0.5"/>
</svg>
